<svg width="467" height="467" viewBox="0 0 467 467" fill="none" xmlns="http://www.w3.org/2000/svg">
<mask id="mask0_1_65" style="mask-type:alpha" maskUnits="userSpaceOnUse" x="0" y="0" width="467" height="467">
<path d="M361.76 0.649994H105.35C47.6362 0.649994 0.849976 47.4362 0.849976 105.15V361.56C0.849976 419.274 47.6362 466.06 105.35 466.06H361.76C419.474 466.06 466.26 419.274 466.26 361.56V105.15C466.26 47.4362 419.474 0.649994 361.76 0.649994Z" fill="white"/>
</mask>
<g mask="url(#mask0_1_65)">
<path d="M187.75 -74.23C490 -74.23 735 88.83 735 290C735 491.17 490 654.2 187.8 654.2C-114.4 654.2 -373.58 653.89 -359.39 290C-347.6 -14 -114.46 -74.23 187.75 -74.23Z" fill="url(#paint0_linear_1_65)"/>
<path d="M569.53 119.37C566.39 88.24 557 43 527.7 -3.16C441.17 -139.71 254.54 -169.09 247.64 -156.67C242.85 -148 325.5 -120.54 410.33 -30C455.372 18.188 491.563 73.9418 517.24 134.7" fill="#FFDC00"/>
<path d="M592.77 119.37C589.63 88.24 580.2 43 550.93 -3.16C464.4 -139.71 277.78 -169.09 270.93 -156.67C266.08 -148 348.74 -120.54 433.56 -30C478.606 18.1849 514.797 73.9395 540.47 134.7" fill="#F6D10C"/>
<path d="M262.4 618C698.17 434.44 636.4 37.3 607.12 -8.89C520.59 -145.45 227.81 -169.09 220.91 -156.67C216.12 -148.04 261.56 -144.67 363.4 -73.83C478.69 6.38 638.4 319.17 121.4 488.17C71.59 504.45 -18.6 524 -70.6 599" fill="url(#paint1_linear_1_65)"/>
<path d="M594.11 -9.06C627.62 147.18 597.06 205.16 595.55 246.53C592.4 333 483 518.7 313.4 489C136.4 458 -53.74 675.54 -25.45 718.21C-11.56 739.16 219.75 804.08 380.6 630.38C396.1 613.64 490.47 582.09 526.94 547.16C653.61 425.86 621.29 410.75 654.77 369C695.82 317.75 657.08 202.72 636.77 105.34" fill="url(#paint2_linear_1_65)"/>
<path d="M-86.62 69.47C-86.62 -42.9 76.36 -51 179.2 -51C282.04 -51 465.39 -95.38 445.4 15.2C400.4 264.2 250.75 424.2 179.2 355.94C69.09 250.88 -86.62 181.84 -86.62 69.47Z" fill="url(#paint3_linear_1_65)"/>
<path d="M-35.6 -2.83C-35.6 -115.2 133.71 -90.24 217.33 -90.24C300.95 -90.24 431.4 -85.2 431.4 27.17C431.4 139.54 306.02 276.17 222.4 276.17C138.78 276.17 -35.6 109.54 -35.6 -2.83Z" fill="url(#paint4_linear_1_65)"/>
<path d="M-35.6 -2.83C-35.6 -115.2 133.71 -90.24 217.33 -90.24C300.95 -90.24 431.4 -85.2 431.4 27.17C431.4 139.54 306.02 276.17 222.4 276.17C138.78 276.17 -35.6 109.54 -35.6 -2.83Z" fill="url(#paint5_linear_1_65)"/>
<path d="M72.4 -37.83C72.4 -90.64 122.4 -170 169.4 -170C216.4 -170 302.64 -103.27 309.4 -50.83C315.74 -1.7 231.4 76.17 160.14 75.36C113.24 74.82 72.4 15 72.4 -37.83Z" fill="url(#paint6_linear_1_65)"/>
</g>
<path d="M130.4 190.5V152C148.84 151.2 161.75 150.01 169.13 148.43C180.89 145.91 190.457 140.88 197.83 133.34C202.877 128.18 206.703 121.297 209.31 112.69C210.81 107.53 211.56 103.693 211.56 101.18H260.47V389H200.47V190.5H130.4ZM285.54 167.13V148.43L329.26 89.75H347.53V150.3H360.9V167.13H347.53V190.43H328.11V167.13H285.54ZM327.68 115.35L301.68 150.35H328.14V115.35H327.68Z" fill="white"/>
<defs>
<linearGradient id="paint0_linear_1_65" x1="187.48" y1="654.17" x2="187.48" y2="-74.23" gradientUnits="userSpaceOnUse">
<stop stop-color="#5865F2"/>
<stop offset="0.99" stop-color="#E7E9FD"/>
</linearGradient>
<linearGradient id="paint1_linear_1_65" x1="462.657" y1="-94.25" x2="39.6061" y2="638.496" gradientUnits="userSpaceOnUse">
<stop stop-color="#5865F2"/>
<stop offset="1" stop-color="#091276"/>
</linearGradient>
<linearGradient id="paint2_linear_1_65" x1="322.31" y1="-9.07" x2="322.31" y2="747.54" gradientUnits="userSpaceOnUse">
<stop offset="0.45" stop-color="#B8BEF9"/>
<stop offset="0.68" stop-color="#5865F2"/>
<stop offset="0.99" stop-color="#8992F6"/>
</linearGradient>
<linearGradient id="paint3_linear_1_65" x1="446.91" y1="155.93" x2="-86.63" y2="155.93" gradientUnits="userSpaceOnUse">
<stop stop-color="#5865F2"/>
<stop offset="1" stop-color="#1121D5"/>
</linearGradient>
<linearGradient id="paint4_linear_1_65" x1="344.61" y1="-30.4433" x2="115.006" y2="199.161" gradientUnits="userSpaceOnUse">
<stop offset="0.23" stop-color="#84CBA8"/>
<stop offset="0.59" stop-color="#00ADEE"/>
<stop offset="0.94" stop-color="#008FAF"/>
<stop offset="1" stop-color="#0089A4"/>
</linearGradient>
<linearGradient id="paint5_linear_1_65" x1="410.4" y1="15.4" x2="0.400011" y2="15.4" gradientUnits="userSpaceOnUse">
<stop stop-color="#B8BEF9"/>
<stop offset="1" stop-color="#5865F2"/>
</linearGradient>
<linearGradient id="paint6_linear_1_65" x1="309.73" y1="-47.33" x2="72.4" y2="-47.33" gradientUnits="userSpaceOnUse">
<stop stop-color="#0D1AA6"/>
<stop offset="1" stop-color="#5865F2"/>
</linearGradient>
</defs>
</svg>
